<svg class="svg-icon" 
style="width: 1em; height: 1em;vertical-align: middle;fill: currentColor;overflow: hidden;"
 viewBox="0 0 1024 1024" version="1.1"
  xmlns="http://www.w3.org/2000/svg">
  <path d="M640 789.333333c-106.88 0-199.68-60.586667-245.973333-149.333333H640v-85.333333H366.293333c-2.133333-13.866667-3.626667-28.16-3.626666-42.666667s1.493333-28.8 3.626666-42.666667H640v-85.333333H394.026667c46.293333-88.746667 138.88-149.333333 245.973333-149.333333 68.906667 0 131.84 25.173333 180.266667 66.773333L896 226.133333A382.72 382.72 0 0 0 640 128c-167.04 0-308.906667 106.88-361.6 256H128v85.333333h130.56c-1.706667 14.08-2.56 28.16-2.56 42.666667 0 14.506667 0.853333 28.586667 2.56 42.666667H128v85.333333h150.4c52.693333 149.12 194.56 256 361.6 256 98.346667 0 188.16-37.333333 256-98.133333l-75.733333-75.52A275.818667 275.818667 0 0 1 640 789.333333z"  /></svg>